<svg xmlns="http://www.w3.org/2000/svg" width="800" height="240" viewBox="0 0 600 180"><path d="M89.621 134.25l55.914-56.453L69.621 1.664 48.863 22.477l56.25 56.41-55.21 55.363 19.921 19.988 19.793-19.988h.004" fill="#7cab2f"/><path d="M118.488 1.664L97.727 22.48l53.636 53.782v-41.63L118.488 1.665M98.77 134.25l19.921 19.988 32.672-32.992V81.512L98.77 134.25M56.246 78.887L1.04 134.25l19.93 19.988 75.699-76.445L20.754 1.664 0 22.48l56.246 56.407" fill="#1f6636"/><path d="M20.754 1.664L41.512 22.48h7.355L69.621 1.664H20.754M89.621 134.25l-19.797 19.988h48.871L98.77 134.25h-9.15" fill="#2b9341"/><path d="M89.617 134.25l-19.793 19.988 19.797-19.988h-.004" fill="#4b6e86"/><path d="M177.012 60.355v34.993l17.386-17.551-17.386-17.442" fill="#1f6636"/><path d="M197.695 25.95c0-7.782-4.164-11.68-12.476-11.68-8.172 0-12.25 3.898-12.25 11.68v104.003c0 8.027 4.078 12.05 12.25 12.05 8.312 0 12.476-4.023 12.476-12.05zm-42.289 0C155.406 8.644 165.344 0 185.22 0c20.023 0 30.035 8.645 30.035 25.95v104.003c0 17.297-10.012 25.945-30.035 25.945-19.875 0-29.813-8.648-29.813-25.945V25.95m108.366 35.59c0-3.583-.804-6.08-2.421-7.5-1.622-1.423-4.207-2.134-7.747-2.134-2.617 0-5.042.621-7.28 1.848-2.227 1.238-3.891 3.094-4.962 5.562v76.38c1.07 2.472 2.735 4.327 4.961 5.558 2.238 1.238 4.664 1.855 7.281 1.855 3.54 0 6.125-.707 7.747-2.136 1.617-1.414 2.421-3.797 2.421-7.137zM225.414 180V39.484h13.414c.457 2.844.688 5.75.688 8.711 1.695-3.207 4.074-5.656 7.16-7.324 3.086-1.66 7.238-2.504 12.476-2.504 6.621 0 11.672 1.738 15.137 5.196 3.469 3.457 5.2 8.894 5.2 16.312v75.078c0 7.785-1.618 13.223-4.852 16.317-3.239 3.085-8.547 4.632-15.946 4.632-3.855 0-7.273-.648-10.28-1.953-3.009-1.289-5.36-2.996-7.048-5.094V180h-15.949m99.02-118.828c0-6.793-3.547-10.192-10.63-10.192-6.624 0-9.937 3.399-9.937 10.192v27.625h20.567zm0 46.348h15.023v25.21c0 15.446-8.555 23.165-25.652 23.165-16.485 0-24.73-7.72-24.73-23.165V61.172c0-7.79 2.116-13.649 6.359-17.61 4.234-3.953 10.355-5.933 18.37-5.933 17.098 0 25.653 7.848 25.653 23.543v36.887h-35.59v34.671c0 6.801 3.313 10.192 9.938 10.192 7.082 0 10.629-3.39 10.629-10.192v-25.21m62.57 46.714V59.508c0-3.344-.695-5.715-2.078-7.14-1.387-1.423-3.774-2.134-7.164-2.134-2.309 0-4.621.555-6.934 1.672-2.308 1.114-4.078 2.903-5.308 5.371v96.957h-15.946V39.484h13.403c.46 2.844.691 5.75.691 8.711 2.148-3.207 5.008-5.78 8.547-7.691 3.543-1.918 7.543-2.875 12.015-2.875 6.473 0 11.211 1.672 14.215 5.008 3.004 3.336 4.5 8.715 4.5 16.125v95.472h-15.941" fill="#2f3031"/><path d="M455.402 154.234V83.602h-24.5v70.632h-17.554V1.664h17.554v68.04h24.5V1.663h17.559v152.57h-17.559m28.438-.003h17.562V1.66H483.84zm99.754.004V108.07c0-11.238.039-22.242.113-32.996.082-10.75.195-21.746.348-32.996l-20.563 112.156h-15.48L527.676 42.078c.144 11.25.265 22.246.344 32.996.078 10.754.12 21.758.12 32.996v46.164h-16.18V1.664h23.571l20.106 119.2 20.105-119.2H600v152.57h-16.406" fill="#1f6636"/></svg>